<?xml version="1.0" encoding="utf-8"?>
<!-- Generator: Adobe Illustrator 16.0.0, SVG Export Plug-In . SVG Version: 6.00 Build 0)  -->
<!DOCTYPE svg PUBLIC "-//W3C//DTD SVG 1.1//EN" "http://www.w3.org/Graphics/SVG/1.1/DTD/svg11.dtd">
<svg version="1.1" xmlns="http://www.w3.org/2000/svg" xmlns:xlink="http://www.w3.org/1999/xlink" x="0px" y="0px"
	 width="226.878px" height="111.189px" viewBox="0 0 226.878 111.189" enable-background="new 0 0 226.878 111.189"
	 xml:space="preserve">
<g id="slide">
	<g>
		<path fill="#8DD7F7" d="M55.631,50.312c-5.549,0-10.49-2.167-14.107-5.617c-3.619-3.515-5.848-8.374-5.848-13.7
			c0-2.281,0.423-4.446,1.206-6.494c0.784-2.104,1.927-4.098,3.375-5.795c0.484-0.173,0.665-0.057,0.544,0.466
			c-1.388,1.642-2.413,3.399-3.194,5.446c-2.292,7.023-0.245,13.814,5.425,19.139c3.496-3.101,7.536-4.451,12.6-4.451
			c5.124,0,9.161,1.35,12.659,4.451c5.666-5.324,7.716-12.116,5.425-19.139c-0.783-2.046-1.808-3.804-3.195-5.446
			c-0.18-0.523,0.061-0.64,0.544-0.466c1.447,1.697,2.59,3.691,3.373,5.795c0.785,2.048,1.208,4.213,1.208,6.494
			c0,5.326-2.231,10.185-5.849,13.7C66.181,48.146,61.236,50.312,55.631,50.312L55.631,50.312z M57.377,25.964
			c-0.359-0.409,0.365-1.58-0.06-1.874c-0.902-0.583-3.498-0.933-11.212,3.337c-0.12,0.058-0.601,0.175-0.42,0
			c2.895-2.341,4.278-3.337,6.992-4.625c0.42-0.171,0.783-0.874,0.603-1.285c-0.424-0.116-3.376-0.585-5.244-2.517
			c0.239-0.41,0.782-0.644,1.687-0.879c-2.291-0.291-4.641-1.462-5.607-1.987c1.327-0.294,2.953-0.764,1.99-1.113
			c-0.725-0.234-3.978-0.585-6.933-2.811c0,0,5.365,0.646,6.208,0.646c0.785,0,0.183-0.354,0.183-0.354
			c-2.773-0.699-6.09-1.463-7.898-3.801c0.845,0.23,3.075,0.759,4.097,0.759c-2.105-1.406-3.976-2.396-4.943-4.569
			c3.317,1.292,5.309,2.053,7.238,2.577c0.117,0.058,0.601,0.179,0.661-0.116c-0.06-0.056-0.12-0.056-0.18-0.115
			c-2.291-1.112-6.328-3.16-7.838-6.088c5.488,3.102,13.086,5.62,15.978,6.26c2.955,0.645,4.521,2.051,5.125,3.808
			c0.844,3.627,2.471,6.496,4.037,5.793c0.604-0.234,0.965-0.876,1.208-1.288c0.361-0.76,1.202-1.11,2.11-0.877
			c0.963,0.233,1.383,1.404,1.987,2.224c-0.479,0.175-1.443,0.583-1.809,1.11c-0.361,0.586-0.542,2.05-1.628,3.807
			c-1.083,1.756-3.434,2.516-3.918,2.806c-0.299,0.179-0.299,0.764-0.24,1.115c0.121,0.293,1.084,0.525,1.39,0.525
			c0.237,0,0.298,0.057,0.419,0.18l0,0l0,0c0.121,0.174,0.121,0.23,0,0.584c-0.182,0.29-0.058-0.178-0.121-0.354
			c-0.121-0.115-0.42-0.115-0.604,0c0,0-0.061,0.116-0.061,0.236c0.061,0.118-0.175,0.408-0.175,0.35
			c0.059-0.117-0.064-0.232-0.186-0.35c-0.482-0.407-0.602,1.11,0.244,0.586c0,0-0.059,0.117-0.304,0.233
			c-0.843,0.115-0.663-0.702-0.724-0.939C58.705,26.431,57.861,26.488,57.377,25.964L57.377,25.964z M40.8,1.034
			c4.038,3.45,8.922,5.149,13.563,5.561c0.604,0.059,1.088,0,1.387-0.528c-0.18-0.178-0.544-0.353-0.967-0.471
			C49.362,4.366,46.345,4.078,40.8,1.034L40.8,1.034z M41.101,37.086l1.086-0.706l0.903,1.467c0.061-0.236,0.12-0.354,0.181-0.528
			c0.123-0.117,0.244-0.233,0.424-0.353c0.362-0.234,0.721-0.234,1.083-0.117c0.424,0.117,0.786,0.412,1.086,0.88
			c0.241,0.349,0.361,0.642,0.422,0.991c0.059,0.296,0.059,0.585-0.061,0.822c-0.12,0.233-0.24,0.407-0.483,0.527
			c-0.179,0.116-0.42,0.176-0.601,0.176c-0.181,0-0.364,0-0.664-0.118l0.3,0.409l-0.964,0.644L41.101,37.086z M43.876,39.017
			c0.181,0.231,0.361,0.405,0.481,0.467c0.18,0.059,0.36,0.059,0.48-0.062c0.123-0.058,0.182-0.174,0.182-0.346
			c0.063-0.179-0.059-0.355-0.242-0.644c-0.12-0.238-0.3-0.411-0.42-0.47c-0.184-0.058-0.3,0-0.422,0.059
			c-0.181,0.057-0.24,0.233-0.24,0.411C43.63,38.607,43.695,38.781,43.876,39.017L43.876,39.017z M45.202,34.746l1.144-0.528
			l1.99,4.503l-1.145,0.469L45.202,34.746z M52.133,37.555l-1.144,0.292l-0.12-0.528c-0.124,0.292-0.243,0.469-0.422,0.586
			c-0.121,0.174-0.301,0.29-0.601,0.35c-0.307,0.057-0.604,0.057-0.846-0.118c-0.3-0.174-0.483-0.468-0.603-0.935l-0.544-2.166
			l1.207-0.352l0.543,1.931c0.06,0.175,0.121,0.351,0.244,0.412c0.058,0.059,0.177,0.059,0.3,0.059c0.18-0.059,0.24-0.12,0.36-0.295
			c0.061-0.116,0-0.35-0.06-0.704l-0.424-1.637l1.207-0.295L52.133,37.555z M56.114,35.737l-2.534,0.238
			c0.061,0.23,0.121,0.405,0.24,0.466c0.123,0.175,0.304,0.234,0.483,0.175c0.12,0,0.243,0,0.363-0.115
			c0.057-0.06,0.117-0.12,0.18-0.236h1.267c-0.182,0.411-0.363,0.644-0.604,0.822c-0.304,0.175-0.664,0.292-1.147,0.35
			c-0.482,0.057-0.783,0-1.083-0.117c-0.24-0.117-0.483-0.292-0.663-0.528c-0.181-0.291-0.3-0.644-0.364-0.992
			c-0.059-0.59,0.064-1.053,0.364-1.406c0.301-0.354,0.783-0.586,1.326-0.645c0.48-0.057,0.841,0,1.145,0.117
			c0.302,0.175,0.544,0.353,0.724,0.645c0.18,0.237,0.243,0.642,0.302,1.11V35.737z M54.784,35.209
			c-0.06-0.23-0.117-0.405-0.237-0.524c-0.123-0.118-0.304-0.118-0.483-0.118c-0.182,0-0.362,0.118-0.422,0.294
			c-0.061,0.117-0.121,0.289-0.121,0.47L54.784,35.209z M57.137,32.403l1.265,0.174l-0.24,1.641c0.183-0.12,0.3-0.178,0.483-0.236
			c0.182-0.06,0.36-0.06,0.542-0.06c0.421,0.06,0.724,0.296,0.964,0.587c0.181,0.353,0.304,0.823,0.181,1.405
			c-0.06,0.35-0.121,0.701-0.301,0.993c-0.179,0.295-0.362,0.471-0.604,0.585c-0.24,0.118-0.482,0.177-0.722,0.118
			c-0.243,0-0.419-0.118-0.604-0.232c-0.121-0.117-0.24-0.237-0.359-0.529l-0.061,0.529l-1.208-0.117L57.137,32.403z M57.98,35.62
			c-0.06,0.295,0,0.528,0.062,0.702c0.12,0.119,0.244,0.236,0.36,0.236c0.182,0.058,0.303,0,0.425-0.117
			c0.118-0.119,0.178-0.354,0.238-0.642c0.063-0.293,0-0.527-0.06-0.648c-0.06-0.172-0.178-0.231-0.3-0.231
			c-0.184-0.058-0.36,0-0.479,0.117C58.101,35.151,58.042,35.388,57.98,35.62L57.98,35.62z M61.778,33.163l1.208,0.352l-0.245,0.878
			l-1.264-0.354L61.778,33.163z M61.357,34.451l1.266,0.353l-1.023,3.391l-1.203-0.348L61.357,34.451z M63.407,35.037l1.145,0.411
			l-0.243,0.583c0.184-0.232,0.364-0.352,0.543-0.352c0.121-0.059,0.304-0.059,0.482,0c0.183,0.059,0.306,0.177,0.482,0.409
			l-0.721,0.762c-0.123-0.117-0.244-0.234-0.304-0.234c-0.179-0.058-0.3-0.058-0.42,0.059c-0.24,0.116-0.422,0.467-0.667,0.995
			l-0.42,1.111l-1.207-0.469L63.407,35.037z M70.281,37.086l-2.778,4.039l-1.022-0.646l0.303-0.409
			c-0.245,0.058-0.483,0.116-0.604,0.116c-0.241,0-0.421-0.058-0.602-0.174c-0.423-0.293-0.606-0.589-0.606-1.052
			c0.063-0.411,0.183-0.881,0.484-1.291c0.359-0.467,0.723-0.82,1.082-0.937c0.423-0.117,0.787-0.058,1.147,0.175
			c0.123,0.12,0.301,0.234,0.36,0.354c0.124,0.175,0.184,0.35,0.184,0.527l0.962-1.408L70.281,37.086z M67.444,38.96
			c0.123-0.239,0.243-0.411,0.183-0.588c0-0.177-0.06-0.35-0.183-0.409c-0.118-0.058-0.301-0.116-0.42-0.058
			c-0.18,0.058-0.36,0.232-0.543,0.467c-0.12,0.29-0.24,0.468-0.24,0.645c0.06,0.173,0.12,0.29,0.24,0.347
			c0.122,0.12,0.303,0.12,0.421,0.058C67.083,39.364,67.267,39.19,67.444,38.96L67.444,38.96z"/>
		<path fill="#8DD7F7" d="M61.702,85.602c0,1.835,0.68,3.388,1.941,4.609l0,0c0.677,0.614,1.355,1.085,2.134,1.369
			c0.774,0.327,1.645,0.471,2.567,0.471c0.92,0,1.792-0.144,2.569-0.471c0.776-0.284,1.502-0.754,2.134-1.416l0,0
			c0.678-0.609,1.162-1.314,1.452-2.069c0.338-0.75,0.485-1.598,0.485-2.493c0-0.895-0.147-1.691-0.485-2.493
			c-0.29-0.754-0.773-1.413-1.452-2.073l0,0c-0.631-0.609-1.357-1.081-2.134-1.412c-0.777-0.28-1.649-0.467-2.569-0.467
			c-0.922,0-1.745,0.188-2.521,0.467c-0.775,0.331-1.502,0.802-2.18,1.412c-0.633,0.661-1.116,1.365-1.456,2.121
			C61.898,83.911,61.702,84.708,61.702,85.602L61.702,85.602z M58.989,85.368v-14.68v-0.377l0.34-0.047l1.936-0.187l0.437-0.094
			v0.471v9.079c0.244-0.282,0.534-0.519,0.776-0.753c0.532-0.468,1.116-0.893,1.747-1.222l0,0c0.629-0.33,1.308-0.564,1.986-0.707
			c0.728-0.187,1.405-0.283,2.133-0.283c1.356,0,2.569,0.237,3.683,0.66c1.112,0.423,2.134,1.084,3.054,1.93
			c0.922,0.894,1.597,1.832,2.034,2.916c0.437,1.083,0.679,2.257,0.679,3.529c0,1.314-0.242,2.493-0.679,3.576
			c-0.437,1.033-1.112,2.023-2.034,2.919l0,0c-0.873,0.848-1.89,1.505-3.054,1.929c-1.114,0.425-2.327,0.658-3.683,0.658
			c-2.714,0-4.945-0.849-6.69-2.587c-0.92-0.896-1.549-1.886-1.986-3.013C59.23,87.955,58.989,86.73,58.989,85.368L58.989,85.368z
			 M79.879,94.167V70.735v-0.378l0.34-0.046l1.987-0.234l0.436-0.094v0.471v23.43v0.33l-0.34,0.047l-1.94,0.284l-0.483,0.047V94.167
			z M97.035,92.428c-0.193,0.187-0.338,0.328-0.484,0.471c-0.435,0.419-0.872,0.749-1.356,0.984l0,0
			c-0.532,0.284-1.064,0.52-1.598,0.661c-0.534,0.094-1.116,0.188-1.748,0.188c-0.968,0-1.887-0.188-2.662-0.472
			c-0.777-0.284-1.456-0.75-2.037-1.361l0,0c-0.582-0.614-1.016-1.319-1.259-2.167c-0.293-0.799-0.438-1.742-0.438-2.777V77.369
			v-0.376l0.386-0.047l1.892-0.235l0.486-0.047v0.47v9.882c0,0.939,0.049,1.741,0.241,2.4c0.195,0.701,0.437,1.225,0.775,1.693
			c0.342,0.424,0.729,0.706,1.26,0.943c0.485,0.187,1.118,0.33,1.793,0.33c0.632,0,1.26-0.144,1.796-0.38
			c0.532-0.235,1.063-0.566,1.5-1.031l0,0c0.485-0.429,0.826-0.946,1.066-1.509c0.242-0.517,0.386-1.131,0.386-1.789V77.369v-0.376
			l0.341-0.047l1.938-0.235l0.436-0.047v0.47v16.75v0.377h-0.339l-1.938,0.237l-0.438,0.094V94.12V92.428z M104.454,86.352
			l10.226-5.879c-0.145-0.14-0.292-0.234-0.436-0.375c-0.242-0.189-0.583-0.331-0.92-0.474c-0.292-0.14-0.681-0.234-1.019-0.328
			c-0.437-0.046-0.874-0.093-1.311-0.093c-0.919,0-1.746,0.187-2.568,0.471c-0.775,0.33-1.454,0.752-2.083,1.361l0,0
			c-0.679,0.616-1.116,1.319-1.454,2.073c-0.34,0.755-0.485,1.599-0.485,2.493c0,0.284,0,0.519,0.049,0.705V86.352z M118.025,92.238
			c-0.585,0.425-1.167,0.755-1.746,1.081c-0.584,0.284-1.118,0.564-1.697,0.754l-0.048,0.047c-0.533,0.19-1.115,0.331-1.696,0.424
			c-0.63,0.094-1.211,0.14-1.844,0.14c-2.713,0-4.94-0.849-6.736-2.587l0,0c-0.92-0.896-1.55-1.886-2.035-2.965
			c-0.437-1.037-0.679-2.215-0.679-3.53c0-1.272,0.242-2.446,0.679-3.529c0.485-1.084,1.163-2.022,2.084-2.916
			c0.873-0.846,1.89-1.507,3.006-1.93c1.112-0.423,2.372-0.66,3.681-0.66c0.874,0,1.648,0.096,2.376,0.283
			c0.775,0.188,1.453,0.472,2.132,0.8l0,0c0.629,0.377,1.162,0.799,1.696,1.317c0.485,0.518,0.923,1.131,1.262,1.836l0.191,0.33
			l-0.337,0.187l-12.988,7.483c0.242,0.42,0.531,0.797,0.871,1.129c0.389,0.423,0.823,0.799,1.354,1.129
			c0.537,0.282,1.069,0.518,1.652,0.659c0.531,0.14,1.164,0.234,1.791,0.234c0.535,0,1.018-0.047,1.554-0.141
			c0.483-0.142,1.016-0.281,1.501-0.47l0,0c0.534-0.236,1.066-0.519,1.646-0.849c0.533-0.378,1.163-0.8,1.843-1.272l0.629-0.516
			v0.848v2.352v0.237L118.025,92.238z M122.482,85.602c0,0.942,0.195,1.79,0.485,2.541c0.338,0.754,0.823,1.458,1.456,2.069
			c0.628,0.614,1.354,1.085,2.131,1.369c0.775,0.327,1.649,0.471,2.568,0.471c0.921,0,1.794-0.144,2.569-0.471
			c0.777-0.284,1.501-0.754,2.133-1.416l0,0c0.63-0.609,1.112-1.314,1.453-2.069c0.34-0.75,0.485-1.598,0.485-2.493
			c0-0.895-0.145-1.691-0.485-2.493c-0.341-0.754-0.823-1.413-1.453-2.073l0,0c-0.632-0.609-1.356-1.081-2.133-1.412
			c-0.775-0.28-1.648-0.467-2.569-0.467c-0.918,0-1.745,0.188-2.52,0.467c-0.777,0.331-1.503,0.802-2.18,1.412
			c-0.632,0.661-1.118,1.365-1.456,2.121C122.678,83.911,122.482,84.708,122.482,85.602L122.482,85.602z M119.771,85.368v-14.68
			v-0.377l0.338-0.047l1.938-0.187l0.436-0.094v0.471v9.079c0.244-0.282,0.485-0.519,0.775-0.753
			c0.533-0.468,1.117-0.893,1.745-1.222l0,0c0.63-0.33,1.308-0.564,1.988-0.707c0.676-0.187,1.405-0.283,2.131-0.283
			c1.357,0,2.569,0.237,3.683,0.66c1.117,0.423,2.131,1.084,3.057,1.93c0.919,0.894,1.598,1.832,2.035,2.916
			c0.434,1.083,0.676,2.257,0.676,3.529c0,1.314-0.242,2.493-0.676,3.576c-0.437,1.033-1.116,2.023-2.035,2.919l0,0
			c-0.926,0.848-1.94,1.505-3.057,1.929c-1.114,0.425-2.326,0.658-3.683,0.658c-2.713,0-4.945-0.849-6.737-2.587
			c-0.873-0.896-1.502-1.886-1.987-3.013C119.961,87.955,119.771,86.73,119.771,85.368L119.771,85.368z M140.269,71.911l1.455-1.694
			l0.29-0.377l0.292,0.331l1.501,1.553l0.243,0.234l-0.243,0.281l-1.454,1.694l-0.34,0.327l-0.29-0.327l-1.455-1.503l-0.241-0.284
			L140.269,71.911z M140.657,94.167V77.369v-0.376l0.341-0.047l1.986-0.235l0.437-0.047v0.47v16.75v0.33l-0.338,0.047l-1.94,0.284
			l-0.486,0.047V94.167z M146.427,94.12V77.369v-0.376l0.387-0.047l1.891-0.235l0.483-0.047v0.47v2.163
			c0.096-0.184,0.244-0.377,0.388-0.518c0.438-0.516,0.969-0.986,1.504-1.315l0,0c0.532-0.33,1.113-0.613,1.693-0.8
			c0.632-0.143,1.263-0.237,1.988-0.237h0.438h0.63l-0.245,0.566l-0.775,1.787l-0.099,0.235l-0.24,0.046
			c-0.92,0.053-1.698,0.285-2.327,0.662c-0.676,0.377-1.212,0.895-1.646,1.599c-0.437,0.707-0.775,1.553-0.97,2.638
			c-0.244,1.031-0.34,2.256-0.34,3.668v6.258v0.377H148.8l-1.889,0.237l-0.484,0.094V94.12z M157.719,85.602
			c0,0.895,0.146,1.744,0.483,2.493c0.339,0.755,0.825,1.46,1.503,2.069l0,0c0.63,0.661,1.356,1.132,2.133,1.416
			c0.778,0.327,1.648,0.471,2.569,0.471c0.919,0,1.745-0.144,2.52-0.471c0.823-0.284,1.503-0.754,2.182-1.416l0,0
			c0.631-0.609,1.116-1.314,1.455-2.069c0.287-0.75,0.435-1.598,0.435-2.493c0-0.895-0.148-1.691-0.435-2.493
			c-0.339-0.754-0.824-1.413-1.455-2.073l0,0c-0.678-0.609-1.358-1.081-2.182-1.412c-0.775-0.28-1.601-0.467-2.52-0.467
			c-0.92,0-1.791,0.188-2.569,0.467c-0.777,0.331-1.503,0.802-2.133,1.412h-0.048c-0.63,0.661-1.116,1.319-1.455,2.073
			C157.865,83.911,157.719,84.708,157.719,85.602L157.719,85.602z M170.999,91.767c-0.242,0.235-0.484,0.519-0.774,0.754
			c-0.534,0.472-1.116,0.843-1.746,1.174c-0.63,0.331-1.26,0.565-1.986,0.755c-0.681,0.141-1.359,0.233-2.085,0.233
			c-2.716,0-4.895-0.849-6.739-2.587c-0.92-0.896-1.599-1.886-2.035-2.919c-0.483-1.083-0.678-2.262-0.678-3.576
			c0-1.272,0.195-2.446,0.678-3.529c0.436-1.084,1.114-2.022,2.035-2.916c0.922-0.846,1.893-1.507,3.056-1.93
			c1.114-0.423,2.327-0.66,3.683-0.66c0.726,0,1.501,0.096,2.18,0.283c0.681,0.142,1.359,0.377,1.988,0.707s1.212,0.754,1.746,1.222
			c0.242,0.235,0.485,0.472,0.677,0.706v-8.796v-0.377l0.389-0.047l1.89-0.187l0.437-0.094v0.471v23.43v0.33l-0.34,0.047
			l-1.89,0.237l-0.486,0.094V94.12V91.767z"/>
		<path fill="#047DBB" d="M162.395,104.993c-0.096-0.24-0.19-0.424-0.19-0.471s0-0.095,0-0.146c0,0-0.051-0.092-0.051-0.279
			c0-0.19,0-0.331,0-0.331v-0.046v-0.047c0.099-0.47,0.29-0.895,0.582-1.272c0.243-0.377,0.583-0.75,0.87-1.126
			c0.632-0.66,1.167-1.319,1.698-1.931c0.533-0.614,1.114-1.223,1.796-1.834c0.048-0.047,0.145-0.141,0.289-0.234
			c0.097-0.092,0.241-0.236,0.437-0.378c0.145-0.143,0.289-0.236,0.437-0.33c0.146-0.14,0.241-0.186,0.241-0.279
			c0.29-0.237,0.63-0.424,0.97-0.662c0.337-0.234,0.678-0.471,1.017-0.659c0.337-0.19,0.68-0.423,0.969-0.658
			c0.339-0.237,0.631-0.515,0.922-0.755c0.243-0.33,0.435-0.563,0.628-0.799c0.197-0.235,0.389-0.519,0.63-0.799
			c0-0.047,0.051-0.094,0.147-0.237c0.048-0.094,0.096-0.235,0.193-0.331c0.1-0.14,0.193-0.234,0.242-0.372
			c0.099-0.099,0.146-0.192,0.146-0.239c0.097-0.047,0.193-0.237,0.387-0.516c0.195-0.239,0.389-0.568,0.582-0.848
			c0.195-0.284,0.388-0.565,0.582-0.849c0.196-0.235,0.292-0.424,0.388-0.472c0-0.046,0-0.094,0-0.094
			c0-0.046,0.049-0.046,0.049-0.046c0.435-0.708,0.92-1.363,1.407-2.022c0.482-0.661,0.969-1.319,1.454-1.929
			c0.048-0.046,0.096-0.14,0.242-0.331c0.146-0.14,0.289-0.327,0.485-0.564c0.193-0.236,0.437-0.423,0.63-0.66
			c0.241-0.234,0.437-0.466,0.63-0.658c0.193-0.186,0.339-0.327,0.484-0.471c0.096-0.138,0.193-0.187,0.242-0.187
			c0.34,0,0.678,0.142,0.97,0.331c0,0.047,0.048,0.047,0.048,0.094c0,0.094,0.051,0.138,0.145,0.138v0.376c0,0.095,0,0.188,0,0.235
			c0,0.093-0.046,0.19-0.094,0.285c-0.245,0.471-0.584,0.941-1.07,1.365c-0.485,0.42-0.871,0.843-1.211,1.22
			c-0.048,0-0.048,0.095-0.145,0.142c-0.048,0.096-0.096,0.143-0.145,0.189v0.047l-1.116,1.32c-0.048,0.046-0.144,0.141-0.193,0.279
			c-0.099,0.093-0.195,0.192-0.244,0.33c-0.097,0.094-0.193,0.188-0.241,0.281c-0.051,0.047-0.051,0.144-0.051,0.144v0.046
			c0.485-0.329,0.972-0.708,1.455-1.08c0.534-0.378,1.019-0.754,1.601-1.039c0.533-0.328,1.115-0.611,1.697-0.845
			c0.581-0.191,1.16-0.284,1.842-0.284c0.337,0,0.725,0.093,1.063,0.237c0.34,0.187,0.535,0.47,0.535,0.892
			c0,0.563-0.098,1.039-0.292,1.411c-0.195,0.378-0.485,0.754-0.92,1.084c-0.291,0.235-0.532,0.519-0.728,0.707
			c-0.242,0.235-0.486,0.422-0.679,0.607c-0.193,0.193-0.438,0.378-0.679,0.569c-0.24,0.14-0.533,0.326-0.874,0.517
			c-0.192,0.094-0.531,0.286-0.967,0.564c-0.437,0.284-1.067,0.567-1.893,0.848c0,0.047-0.094,0.094-0.289,0.094
			c-0.146,0.048-0.338,0.094-0.534,0.144c-0.193,0.047-0.34,0.093-0.485,0.14c-0.145,0.094-0.242,0.142-0.194,0.187
			c0,0.094,0.049,0.139,0.148,0.332c0.094,0.14,0.242,0.232,0.29,0.232c0.387,0.142,0.728,0.239,1.019,0.284
			c0.337,0.047,0.579,0.047,0.871,0c0.241-0.091,0.485-0.142,0.729-0.284c0.24-0.092,0.434-0.232,0.676-0.372
			c0.437-0.236,0.921-0.518,1.311-0.802c0.433-0.331,0.871-0.564,1.355-0.801c0.052-0.046,0.098-0.095,0.242-0.188
			c0.147-0.09,0.244-0.189,0.389-0.33c0.144-0.139,0.291-0.237,0.388-0.331c0.142-0.093,0.193-0.185,0.241-0.185
			c0.145-0.048,0.338-0.192,0.582-0.377c0.244-0.146,0.482-0.378,0.727-0.564c0.241-0.19,0.532-0.377,0.726-0.565
			c0.244-0.189,0.438-0.284,0.633-0.331c0.142,0,0.241,0.047,0.337,0.094c0.1,0,0.145,0.141,0.145,0.237
			c0,0.094-0.097,0.188-0.29,0.375c-0.193,0.19-0.388,0.376-0.63,0.563c-0.245,0.191-0.485,0.376-0.681,0.521
			c-0.241,0.186-0.386,0.233-0.434,0.233l-1.503,0.942c-0.098,0.19-0.29,0.331-0.532,0.376c-0.243,0.144-0.437,0.285-0.584,0.471
			l-2.18,1.51c-0.195,0.047-0.34,0.14-0.485,0.231c-0.145,0.046-0.339,0.141-0.482,0.188c-0.146,0.046-0.292,0.143-0.488,0.189
			c-0.193,0.047-0.386,0.047-0.63,0.047c-0.29,0-0.628-0.047-1.016-0.093c-0.388-0.143-0.727-0.284-1.067-0.469
			c-0.341-0.146-0.678-0.376-0.922-0.616c-0.241-0.232-0.34-0.562-0.34-0.844c0-0.144,0.099-0.284,0.244-0.33
			c0.097-0.141,0.242-0.188,0.438-0.285c0.143-0.094,0.29-0.187,0.434-0.234c0.194,0,0.338-0.097,0.438-0.143
			c0.094-0.046,0.29-0.094,0.483-0.234c0.241-0.094,0.484-0.186,0.824-0.331c0.291-0.139,0.58-0.284,0.92-0.424
			c0.29-0.138,0.534-0.279,0.777-0.377c0-0.047,0.144-0.138,0.29-0.285c0.192-0.094,0.386-0.232,0.63-0.372
			c0.241-0.145,0.437-0.236,0.582-0.33c0.148-0.142,0.291-0.188,0.291-0.188c0.048,0,0.099-0.094,0.195-0.19
			c0.144-0.093,0.24-0.188,0.385-0.329c0.1-0.095,0.196-0.189,0.337-0.331c0.1-0.046,0.147-0.14,0.196-0.189
			c0.389-0.28,0.631-0.61,0.778-0.984c0.193-0.331,0.242-0.754,0.242-1.272c-0.291,0-0.631,0.047-0.923,0.141
			c-0.34,0.094-0.678,0.19-1.015,0.331c-0.29,0.188-0.583,0.326-0.922,0.471c-0.242,0.188-0.534,0.378-0.775,0.563
			c-0.049,0.047-0.098,0.047-0.098,0.047c-0.049,0-0.049,0.046-0.098,0.139l-0.048-0.046c-0.047,0-0.047,0.046-0.094,0.046
			c-0.049,0-0.049,0.052-0.099,0.099c-0.241,0.186-0.534,0.326-0.775,0.466c-0.245,0.143-0.534,0.284-0.776,0.471
			c-0.096,0.097-0.194,0.19-0.34,0.285c-0.144,0.143-0.292,0.284-0.437,0.377c-0.193,0.14-0.341,0.188-0.437,0.33
			c-0.194,0.094-0.29,0.142-0.386,0.142c-0.29,0.279-0.58,0.562-0.922,0.848c-0.34,0.232-0.63,0.516-0.92,0.845
			c-0.145,0.142-0.244,0.327-0.385,0.518c-0.049,0.237-0.197,0.425-0.341,0.611c-0.34,0.425-0.729,0.896-1.066,1.365
			c-0.387,0.423-0.726,0.895-1.019,1.413c-0.145,0.187-0.241,0.377-0.34,0.611c-0.097,0.19-0.194,0.377-0.338,0.563
			c-0.146,0.238-0.339,0.471-0.582,0.755c-0.242,0.283-0.39,0.564-0.486,0.801l-1.986,2.447c-0.389,0.516-0.726,0.989-1.111,1.459
			c-0.392,0.471-0.827,0.939-1.264,1.364c-0.047,0.047-0.144,0.188-0.292,0.328c-0.142,0.19-0.241,0.283-0.29,0.33
			c-0.048,0.047-0.097,0.093-0.145,0.141c0,0.046-0.097,0.093-0.097,0.093c-0.244,0.092-0.438,0.284-0.68,0.469
			c-0.194,0.192-0.387,0.332-0.677,0.471c-0.195,0.192-0.437,0.283-0.68,0.376c-0.292,0.095-0.534,0.142-0.872,0.142
			c-0.049,0-0.146,0-0.242,0c-0.146-0.047-0.291-0.047-0.388-0.094c-0.144,0-0.244-0.047-0.34-0.094
			C162.493,105.13,162.395,105.083,162.395,104.993L162.395,104.993z M162.787,103.999c0.048,0.047,0.097,0.098,0.144,0.145
			c0.048,0.047,0.097,0.141,0.145,0.141c0,0,0.048,0,0.097,0c0.096,0,0.146-0.047,0.195-0.094c0.724-0.612,1.357-1.272,1.937-1.976
			c0.581-0.71,1.166-1.413,1.796-2.121c0.048-0.046,0.241-0.234,0.482-0.517c0.243-0.327,0.532-0.704,0.776-1.081
			c0.338-0.331,0.582-0.705,0.824-0.988c0.193-0.326,0.338-0.519,0.338-0.612c-0.047,0-0.145,0.047-0.194,0.093
			c-0.24,0.145-0.533,0.332-0.771,0.519c-0.293,0.236-0.537,0.424-0.73,0.564c-0.196,0.189-0.34,0.284-0.437,0.424
			c-0.047,0.139-0.192,0.283-0.436,0.424l-2.665,2.778c-0.583,0.562-1.02,1.267-1.357,2.067c0,0-0.047,0.048-0.047,0.094
			C162.835,103.907,162.835,103.954,162.787,103.999L162.787,103.999z M185.467,92.521c0-0.424,0.146-0.941,0.388-1.503
			c0.29-0.523,0.582-1.041,0.971-1.603c0.337-0.519,0.725-1.036,1.112-1.507c0.388-0.516,0.727-0.94,1.019-1.317l0,0
			c0.052,0,0.052,0,0.052-0.047l0,0c0.045-0.047,0.094-0.094,0.19-0.237c0.147-0.14,0.292-0.281,0.388-0.421
			c0.144-0.19,0.24-0.331,0.337-0.471c0.148-0.096,0.197-0.237,0.247-0.237c0.049-0.046,0.143-0.186,0.338-0.376
			c0.145-0.187,0.337-0.372,0.482-0.564c0.197-0.185,0.342-0.372,0.535-0.515c0.145-0.142,0.292-0.235,0.339-0.235l0.052,0.047l0,0
			h0.048c0.046,0,0.046,0.046,0.046,0.046h0.096h0.148c0,0,0-0.046,0.048-0.046c0-0.047,0.048-0.047,0.096-0.047
			c0,0,0,0.047,0.049,0.093c0,0.047,0.048,0.094,0.048,0.094c0.097,0.048,0.193,0.094,0.193,0.094c0.099,0,0.099,0.045,0.147,0.045
			c0,0,0.049,0,0.049,0.051c0,0.093,0,0.187,0,0.325c0,0.047,0,0.094,0,0.188c0,0.051-0.049,0.146-0.049,0.189l-1.602,1.884
			c0,0-0.045,0.046-0.095,0.141c-0.047,0.094-0.096,0.19-0.096,0.284c-0.099,0.093-0.099,0.186-0.146,0.279
			c-0.05,0.047-0.05,0.093-0.05,0.093l-2.083,2.875c-0.145,0.093-0.241,0.186-0.34,0.326c-0.048,0.14-0.098,0.284-0.194,0.377
			c-0.196,0.192-0.292,0.376-0.437,0.564c-0.049,0.236-0.144,0.473-0.193,0.661c-0.048,0.187-0.048,0.377-0.048,0.518
			c0,0.139,0.048,0.278,0.146,0.33v0.14c0,0.14,0.047,0.186,0.144,0.186c0.535,0,0.971-0.092,1.457-0.326
			c0.386-0.191,0.823-0.378,1.26-0.567c0.289-0.281,0.581-0.565,0.968-0.846c0.439-0.33,0.777-0.66,1.017-0.897
			c0.435-0.373,0.921-0.849,1.408-1.365c0.434-0.563,0.872-1.081,1.306-1.598c0.048,0,0.099-0.094,0.147-0.233
			c0.048-0.093,0.097-0.191,0.097-0.191c0.385-0.516,0.823-0.987,1.259-1.458c0.434-0.424,0.872-0.843,1.357-1.314
			c0.195-0.051,0.337-0.192,0.437-0.284c0.145-0.141,0.29-0.234,0.486-0.234c0.193,0,0.288,0.093,0.288,0.234
			c0,0.284-0.047,0.516-0.24,0.707c-0.196,0.232-0.39,0.42-0.534,0.61c-0.631,0.659-1.21,1.366-1.842,1.976
			c-0.243,0.28-0.482,0.563-0.775,0.942c-0.241,0.33-0.484,0.659-0.679,0.895c-0.145,0.187-0.338,0.421-0.582,0.659
			c-0.241,0.283-0.435,0.516-0.628,0.799c-0.195,0.286-0.388,0.564-0.485,0.848c-0.146,0.331-0.194,0.564-0.194,0.848
			c0,0.046,0,0.093,0,0.187c0,0.048,0,0.093,0,0.093c0.048,0.094,0.145,0.139,0.242,0.191c0.146,0.046,0.243,0.093,0.243,0.188
			c0.243,0.092,0.533,0,0.871-0.094c0.389-0.19,0.778-0.378,1.164-0.661c0.438-0.281,0.825-0.565,1.262-0.942
			c0.435-0.328,0.872-0.703,1.259-1.035c0.389-0.378,0.729-0.709,1.067-1.034c0.338-0.332,0.631-0.612,0.824-0.849
			c0.096-0.047,0.146-0.093,0.29-0.093c0.048,0,0.097,0,0.097,0.046c0.097,0,0.097,0.047,0.097,0.047c0,0.047,0.05,0.094,0.05,0.188
			c0,0.049,0,0.096,0,0.096c0,0.14-0.099,0.282-0.195,0.467c-0.146,0.192-0.29,0.377-0.486,0.564
			c-0.142,0.189-0.338,0.381-0.531,0.568c-0.145,0.186-0.292,0.285-0.339,0.376l-1.697,1.412c-0.29,0.188-0.534,0.377-0.824,0.612
			c-0.292,0.236-0.582,0.469-0.874,0.657c-0.291,0.235-0.582,0.382-0.919,0.566c-0.292,0.141-0.63,0.188-0.968,0.188
			c-0.048,0-0.147,0-0.244,0c-0.096,0-0.146,0-0.193,0c-0.244-0.142-0.437-0.232-0.584-0.419c-0.093-0.193-0.19-0.429-0.289-0.661
			c-0.049-0.24-0.049-0.472-0.049-0.706c0-0.237,0-0.471,0-0.709c0,0.048-0.047,0.048-0.047,0.094
			c-0.049,0.047-0.049,0.097-0.097,0.097c-0.291,0.328-0.63,0.611-0.97,0.939c-0.338,0.285-0.727,0.562-1.116,0.8
			c-0.386,0.238-0.822,0.423-1.21,0.611c-0.435,0.143-0.873,0.19-1.358,0.19c-0.388,0-0.726-0.047-1.015-0.19
			c-0.292-0.093-0.584-0.278-0.923-0.465c-0.048-0.1-0.099-0.146-0.146-0.284c-0.05-0.101-0.095-0.193-0.144-0.331
			c-0.048-0.094-0.098-0.234-0.146-0.331C185.467,92.663,185.467,92.615,185.467,92.521L185.467,92.521z M195.937,86.828
			c-0.05,0.047-0.05,0.047-0.05,0.093c0,0,0,0,0.05,0l0.049-0.046C195.986,86.875,195.986,86.828,195.937,86.828L195.937,86.828z
			 M196.082,86.685c-0.048,0.045-0.096,0.097-0.096,0.097c0.048,0,0.048,0.046,0.096,0h0.049
			C196.131,86.73,196.131,86.685,196.082,86.685L196.082,86.685z M195.743,93.464c0.291-0.377,0.677-0.801,1.113-1.273
			c0.438-0.471,0.874-1.083,1.357-1.836c0.051-0.047,0.099-0.14,0.241-0.285c0.099-0.138,0.244-0.283,0.343-0.425
			c0.095-0.138,0.243-0.23,0.34-0.372c0.143-0.142,0.19-0.235,0.24-0.284c0.485-0.753,0.97-1.413,1.405-2.022
			c0.195-0.141,0.34-0.377,0.536-0.708c0.192-0.328,0.336-0.564,0.481-0.752c0.097-0.094,0.197-0.236,0.341-0.424
			c0.097-0.185,0.242-0.377,0.387-0.562c0.099-0.24,0.244-0.472,0.391-0.659c0.097-0.143,0.191-0.285,0.289-0.378
			c0.097-0.094,0.146-0.14,0.194-0.236c0.096-0.047,0.193-0.141,0.24-0.235c0.244-0.282,0.534-0.422,0.874-0.422
			c0.338,0,0.677,0.28,0.969,0.848c0.146,0.233,0.193,0.518,0.29,0.796c0.097,0.287,0.194,0.518,0.292,0.755
			c0.095,0.28,0.242,0.47,0.435,0.563c0.196,0.188,0.486,0.234,0.778,0.188c0.241-0.047,0.482,0,0.675,0.093
			c0.195,0.096,0.292,0.284,0.392,0.471c0.096,0.144,0.096,0.332,0.047,0.568c-0.047,0.186-0.195,0.326-0.487,0.424
			c-0.242,0.046-0.579,0.278-1.016,0.655c-0.389,0.425-0.778,0.896-1.116,1.414c-0.097,0.14-0.241,0.327-0.436,0.518
			c-0.193,0.185-0.386,0.377-0.579,0.562c-0.196,0.239-0.341,0.425-0.488,0.614c-0.193,0.234-0.338,0.424-0.386,0.518
			c-0.34,0.658-0.533,1.083-0.679,1.413c-0.144,0.279-0.098,0.518,0.146,0.656h0.193c0.145,0.1,0.387,0.1,0.678-0.046
			c0.292-0.047,0.63-0.189,1.02-0.377c0.387-0.186,0.776-0.378,1.165-0.562c0.387-0.235,0.775-0.425,1.113-0.612
			c0.241-0.188,0.584-0.379,0.922-0.707c0.386-0.326,0.774-0.565,1.063-0.849c0.389-0.28,0.73-0.471,0.97-0.656
			c0.242-0.193,0.387-0.331,0.435-0.471c0.293-0.284,0.585-0.612,0.826-0.896c0.289-0.283,0.533-0.424,0.822-0.424
			c0.1,0,0.147,0.046,0.147,0.094c0,0.047,0.049,0.14,0.145,0.14c-0.096,0.285-0.243,0.568-0.388,0.802
			c-0.193,0.284-0.482,0.562-0.92,0.986c-0.194,0.145-0.436,0.331-0.729,0.616c-0.338,0.232-0.579,0.469-0.774,0.609
			c-0.243,0.189-0.535,0.424-0.875,0.708c-0.289,0.281-0.579,0.517-0.871,0.659c-0.34,0.184-0.726,0.376-1.212,0.608
			c-0.485,0.284-0.971,0.477-1.453,0.708c-0.485,0.188-0.919,0.377-1.308,0.518c-0.39,0.094-0.632,0.141-0.777,0.094
			c-0.437,0-0.824-0.094-1.164-0.281c-0.338-0.19-0.534-0.515-0.534-0.946c0-0.23-0.049-0.418,0-0.562
			c0-0.188,0.097-0.374,0.148-0.564c0.047-0.187,0.193-0.375,0.337-0.658c0.097-0.236,0.292-0.518,0.486-0.848
			c0.05-0.144,0.147-0.284,0.34-0.469c0.193-0.239,0.387-0.424,0.582-0.663c0.192-0.232,0.385-0.468,0.582-0.656
			c0.193-0.188,0.34-0.331,0.389-0.425c0.338-0.377,0.726-0.708,1.112-1.036c0.338-0.33,0.678-0.608,0.922-0.798v-0.046
			c-0.048,0-0.096,0-0.244,0c-0.094-0.048-0.193-0.048-0.242-0.048c-0.241,0-0.533-0.141-0.726-0.331
			c-0.195-0.187-0.341-0.375-0.437-0.61c-0.144-0.282-0.243-0.519-0.292-0.705c-0.046-0.191-0.094-0.331-0.094-0.378
			c-0.147,0.047-0.341,0.286-0.585,0.565c-0.241,0.237-0.485,0.564-0.725,0.942c-0.242,0.325-0.435,0.708-0.679,0.987
			c-0.195,0.332-0.34,0.565-0.389,0.704c-0.097,0.097-0.193,0.237-0.337,0.425c-0.148,0.19-0.242,0.377-0.438,0.52
			c-0.144,0.187-0.289,0.375-0.385,0.564c-0.148,0.234-0.29,0.372-0.391,0.565c-0.193,0.232-0.338,0.469-0.532,0.656
			c-0.144,0.237-0.29,0.424-0.438,0.567c-0.193,0.188-0.338,0.424-0.532,0.61c-0.143,0.191-0.34,0.425-0.534,0.756
			c-0.048,0-0.144,0.093-0.292,0.28c-0.143,0.191-0.19,0.285-0.29,0.285c-0.144,0.232-0.29,0.42-0.435,0.61
			c-0.146,0.192-0.241,0.377-0.338,0.518c-0.098,0.093-0.243,0.236-0.342,0.283c-0.145,0.094-0.29,0.094-0.434,0
			c-0.097,0-0.147,0-0.147-0.047c0,0-0.097,0-0.145,0c-0.438-0.143-0.677-0.283-0.677-0.421
			C195.647,93.795,195.696,93.603,195.743,93.464L195.743,93.464z M211.107,94.498c-0.292-0.141-0.581-0.377-0.92-0.61
			c-0.292-0.285-0.535-0.524-0.729-0.801c-0.049,0-0.049-0.047-0.049-0.094c0-0.047,0-0.093-0.047-0.093c0,0,0-0.097,0-0.33
			c-0.049-0.188-0.049-0.332-0.049-0.472l0,0c0-0.376,0.096-0.753,0.242-1.178c0.145-0.424,0.339-0.849,0.535-1.225
			c0.238-0.421,0.483-0.798,0.772-1.128c0.292-0.285,0.582-0.566,0.825-0.755c0.245-0.186,0.534-0.374,0.775-0.564
			c0.244-0.187,0.534-0.372,0.777-0.608c0.094-0.095,0.292-0.188,0.581-0.379c0.242-0.14,0.531-0.328,0.821-0.471
			c0.341-0.14,0.582-0.328,0.874-0.471c0.243-0.142,0.438-0.188,0.533-0.234l1.312-0.656h-0.049c0.242-0.146,0.482-0.24,0.771-0.284
			c0.34-0.094,0.633-0.141,0.973-0.188c0.291-0.046,0.629-0.093,0.92-0.145c0.338,0,0.628-0.045,0.826-0.092
			c0.049,0,0.143,0.046,0.29,0.046c0.144,0.045,0.242,0.045,0.29,0.045s0.145,0.051,0.242,0.145c0.097,0.046,0.194,0.14,0.338,0.231
			c0.145,0.141,0.242,0.24,0.338,0.334c0.097,0.091,0.148,0.185,0.196,0.231c0,0,0.052,0.098,0.052,0.191
			c0.045,0.14,0.045,0.232,0.045,0.327v0.047c0,0.143-0.045,0.331-0.196,0.518c-0.146,0.237-0.241,0.377-0.29,0.516l-1.744,1.603
			c0,0-0.096,0-0.193,0.141c-0.145,0.047-0.289,0.187-0.484,0.284c-0.145,0.093-0.29,0.188-0.438,0.33
			c-0.191,0.047-0.242,0.141-0.34,0.187c-0.095,0.048-0.191,0.094-0.387,0.188c-0.193,0.094-0.289,0.139-0.438,0.094
			c-0.723,0.468-1.548,0.754-2.372,0.893c-0.824,0.145-1.648,0.237-2.521,0.237c-0.193,0-0.387-0.045-0.531-0.093
			c-0.147,0-0.291-0.046-0.438-0.046c-0.147,0-0.289,0.094-0.484,0.232c-0.099,0.187-0.241,0.377-0.388,0.617
			c-0.097,0.232-0.242,0.468-0.291,0.749c-0.096,0.238-0.147,0.471-0.147,0.615c0,0.093,0.051,0.233,0.147,0.327
			c0.048,0.139,0.193,0.237,0.291,0.332c0.096,0.047,0.194,0.14,0.339,0.232c0.147,0.092,0.245,0.092,0.338,0.092
			c0.048,0,0.195,0,0.437,0.049c0.244,0,0.438,0,0.534,0h0.048h0.146c0.581,0,1.359-0.094,2.229-0.234
			c0.919-0.187,1.941-0.564,3.054-1.222l4.023-2.497c0,0,0.052-0.045,0.241-0.139c0.147-0.099,0.342-0.237,0.485-0.377
			c0.195-0.141,0.388-0.235,0.532-0.377c0.146-0.094,0.291-0.188,0.291-0.188c0.096-0.097,0.195-0.143,0.244-0.097
			c0.096,0,0.193,0.049,0.242,0.143c0.049,0.094,0.049,0.142,0.098,0.235c0,0.096,0,0.143-0.049,0.143
			c0,0.093-0.049,0.187-0.244,0.375c-0.195,0.144-0.389,0.33-0.678,0.609c-0.241,0.189-0.533,0.428-0.871,0.661
			c-0.292,0.284-0.633,0.471-0.924,0.66c-0.291,0.236-0.53,0.424-0.772,0.564c-0.241,0.142-0.339,0.238-0.44,0.285
			c-0.048,0-0.143,0.094-0.24,0.14c-0.145,0.094-0.242,0.141-0.387,0.235c-0.145,0.096-0.244,0.143-0.34,0.237
			c-0.096,0.045-0.193,0.094-0.242,0.094l-0.096,0.045c0,0-0.049,0.048-0.1,0.094c-0.094,0.045-0.191,0.097-0.34,0.143
			c-0.095,0.047-0.191,0.094-0.338,0.188c-0.097,0.046-0.193,0.092-0.289,0.138c-0.388,0.142-0.823,0.331-1.31,0.523
			c-0.485,0.14-1.018,0.325-1.552,0.418c-0.485,0.143-1.017,0.284-1.55,0.331c-0.487,0.047-0.969,0.14-1.407,0.14h-0.193
			L211.107,94.498z M213.142,88.803c0.049,0.093,0.099,0.093,0.147,0.093c0.094,0.048,0.194,0.048,0.244,0.048
			c1.548,0,2.906-0.284,4.117-0.849c1.21-0.563,2.327-1.313,3.344-2.352c0.052-0.093,0.196-0.188,0.342-0.281
			c0.192-0.143,0.239-0.285,0.239-0.424v-0.093c0,0-0.047,0-0.144,0c-0.096,0-0.194-0.045-0.194-0.093h-0.385
			c-0.39,0-0.779,0.048-1.07,0.14c-0.338,0.14-0.675,0.327-1.016,0.517c-0.342,0.142-0.729,0.328-1.116,0.472
			c-0.388,0.141-0.728,0.327-1.114,0.564c-0.631,0.331-1.209,0.657-1.793,0.987C214.161,87.812,213.63,88.282,213.142,88.803
			L213.142,88.803z M88.82,96.896c-1.839,2.87-4.167,5.364-6.833,7.388c-2.712,2.072-5.766,3.672-9.061,4.658
			c-7.562,2.305-15.413,1.458-21.959-1.834c-6.542-3.294-11.775-9.036-14.149-16.376l0,0l0,0
			c-2.377-7.386-1.506-14.962,1.888-21.315c3.394-6.351,9.304-11.433,16.868-13.739l0,0l0,0c7.61-2.355,15.413-1.459,21.955,1.836
			c6.543,3.294,11.779,9.035,14.154,16.373l-3.201,0.989c-2.083-6.493-6.736-11.526-12.503-14.446
			c-5.768-2.916-12.7-3.716-19.389-1.646l0,0l0,0c-6.689,2.024-11.875,6.542-14.881,12.141c-3.003,5.597-3.779,12.327-1.696,18.816
			l0,0l0,0c2.134,6.496,6.739,11.534,12.508,14.451c5.767,2.917,12.697,3.671,19.387,1.645c2.957-0.89,5.621-2.303,7.996-4.09
			c2.375-1.791,4.41-4.001,6.01-6.544L88.82,96.896z M8.85,62.03c2.471,0,4.699,0.943,6.302,2.493
			c1.598,1.601,2.616,3.766,2.616,6.165c0,2.353-1.018,4.518-2.616,6.116c-1.603,1.553-3.831,2.541-6.302,2.541
			c-2.474,0-4.702-0.987-6.302-2.541c-1.6-1.598-2.617-3.763-2.617-6.116c0-2.399,1.017-4.564,2.617-6.165
			C4.148,62.973,6.376,62.03,8.85,62.03L8.85,62.03z M12.775,66.875c-1.017-0.986-2.374-1.596-3.925-1.596
			c-1.553,0-2.908,0.61-3.925,1.596c-1.021,0.943-1.604,2.308-1.604,3.813c0,1.458,0.583,2.82,1.604,3.811
			c1.017,0.941,2.372,1.555,3.925,1.555c1.551,0,2.908-0.613,3.925-1.555c1.018-0.99,1.648-2.353,1.648-3.811
			C14.423,69.183,13.793,67.818,12.775,66.875L12.775,66.875z M38.464,52.053c3.393,0,6.447,1.365,8.675,3.484
			c2.229,2.165,3.585,5.126,3.585,8.421c0,3.295-1.356,6.259-3.585,8.377c-2.229,2.163-5.282,3.481-8.675,3.481
			c-3.344,0-6.448-1.318-8.629-3.481c-2.228-2.119-3.583-5.083-3.583-8.377c0-3.294,1.355-6.256,3.583-8.421
			C32.016,53.418,35.12,52.053,38.464,52.053L38.464,52.053z M44.765,57.841c-1.6-1.552-3.83-2.494-6.301-2.494
			c-2.423,0-4.655,0.941-6.252,2.494c-1.6,1.552-2.617,3.718-2.617,6.117c0,2.354,1.017,4.518,2.617,6.071
			c1.597,1.554,3.829,2.541,6.252,2.541c2.471,0,4.702-0.986,6.301-2.541c1.598-1.554,2.568-3.717,2.568-6.071
			C47.333,61.559,46.363,59.393,44.765,57.841L44.765,57.841z M22.082,35.96c2.424,0,4.651,0.989,6.252,2.54
			c1.599,1.556,2.615,3.719,2.615,6.071c0,2.401-1.016,4.564-2.615,6.117c-1.601,1.556-3.828,2.496-6.252,2.496
			c-2.475,0-4.703-0.94-6.303-2.496c-1.597-1.553-2.568-3.716-2.568-6.117c0-2.352,0.972-4.515,2.568-6.071
			C17.379,36.949,19.607,35.96,22.082,35.96L22.082,35.96z M25.958,40.808c-1.016-0.988-2.375-1.553-3.876-1.553
			c-1.552,0-2.911,0.565-3.927,1.553c-0.969,0.987-1.6,2.303-1.6,3.763c0,1.507,0.631,2.826,1.6,3.813
			c1.017,0.942,2.375,1.554,3.927,1.554c1.501,0,2.86-0.612,3.876-1.554c0.97-0.986,1.6-2.306,1.6-3.813
			C27.559,43.111,26.928,41.794,25.958,40.808L25.958,40.808z"/>
	</g>
</g>
<g id="features">
</g>
<g id="SLIDE-CONTROL" display="none">
</g>
</svg>
